<?xml version="1.0" standalone="no"?>
<!DOCTYPE svg PUBLIC "-//W3C//DTD SVG 20010904//EN"
 "http://www.w3.org/TR/2001/REC-SVG-20010904/DTD/svg10.dtd">
<svg version="1.0" xmlns="http://www.w3.org/2000/svg"
 width="60.000000pt" height="60.000000pt" viewBox="0 0 60.000000 60.000000"
 preserveAspectRatio="xMidYMid meet">
<metadata>
Created by potrace 1.16, written by Peter Selinger 2001-2019
</metadata>
<g transform="translate(0.000000,60.000000) scale(0.005556,-0.005556)"
fill="#000000" stroke="none">
<path d="M5998 8377 c-9 -8 -55 -71 -102 -142 -47 -70 -88 -130 -91 -133 -3
-3 -13 2 -22 10 -10 8 -50 34 -89 57 -80 47 -126 53 -167 20 -29 -22 -36 -41
-74 -226 -25 -118 -27 -147 -27 -363 -1 -208 2 -247 22 -340 34 -155 54 -234
62 -245 4 -5 15 -35 25 -65 46 -143 199 -414 301 -534 33 -39 34 -42 34 -132
0 -71 -3 -92 -12 -89 -7 3 -62 17 -123 31 -60 14 -126 30 -145 34 -87 23 -521
70 -642 70 -144 0 -507 -47 -618 -80 -211 -62 -285 -91 -429 -165 -168 -87
-308 -189 -452 -331 l-96 -95 -6 77 c-13 178 -158 346 -344 400 -90 26 -232
16 -314 -23 -120 -56 -210 -151 -256 -267 -23 -60 -23 -61 -23 -512 l0 -452
36 -64 c21 -34 65 -112 99 -173 35 -60 80 -139 100 -175 21 -36 58 -101 83
-145 l45 -80 -13 -70 c-18 -102 -24 -431 -11 -550 23 -206 29 -232 71 -330 10
-22 43 -105 74 -185 32 -80 63 -158 70 -175 20 -42 106 -263 106 -269 0 -3 13
-34 29 -68 15 -35 34 -80 40 -101 7 -21 24 -51 38 -67 l25 -30 1223 0 1224 0
20 26 c18 23 21 40 21 133 -1 76 -6 121 -19 159 -16 46 -16 53 -3 50 9 -2 19
-14 23 -28 48 -172 92 -297 110 -317 l22 -23 427 0 c394 0 428 1 442 18 19 21
48 94 127 317 33 94 90 253 126 355 36 102 70 194 75 205 6 11 23 58 39 105
17 47 46 130 66 185 19 55 51 143 70 195 18 52 45 127 59 165 14 39 46 126 71
195 25 69 57 157 70 195 13 39 45 126 70 195 26 69 51 139 57 155 l10 30 111
1 c98 1 123 5 201 32 101 36 207 95 250 141 17 17 36 31 43 31 7 0 13 4 13 8
0 5 22 36 49 70 44 55 84 126 134 242 9 19 27 92 42 162 24 118 26 143 23 340
-3 181 -7 224 -25 288 -43 154 -142 327 -270 473 -135 153 -167 175 -566 375
-227 113 -367 189 -370 200 -35 112 -113 290 -196 447 -200 377 -476 672 -769
822 -68 34 -95 43 -136 43 -28 0 -59 -6 -68 -13z m269 -304 c292 -219 523
-555 694 -1013 22 -57 46 -115 55 -127 9 -15 153 -93 402 -217 l387 -194 98
-100 c219 -227 316 -455 304 -713 -2 -59 -8 -112 -11 -118 -5 -7 -53 -11 -137
-11 l-129 0 0 -95 0 -94 120 -3 119 -3 -28 -81 c-37 -108 -96 -197 -134 -201
-40 -5 -134 14 -176 35 -40 20 -81 88 -81 134 l0 28 -96 0 -97 0 5 -63 c10
-118 88 -231 191 -277 l41 -19 -29 -13 c-19 -8 -74 -12 -150 -12 -103 0 -132
4 -201 27 -199 66 -516 264 -765 478 -30 26 -59 45 -65 41 -18 -13 -114 -130
-114 -138 1 -17 285 -236 426 -329 110 -73 284 -167 370 -200 l71 -27 -74
-206 c-41 -114 -99 -274 -128 -357 -30 -82 -90 -251 -135 -375 -45 -124 -105
-292 -135 -375 -29 -82 -90 -251 -135 -375 -45 -124 -103 -285 -128 -357 l-47
-133 -57 0 -58 0 0 353 c0 195 -3 510 -7 700 l-6 347 -87 0 -87 0 -7 -407 c-4
-225 -6 -538 -6 -698 l1 -290 -149 -3 -150 -3 -6 28 c-4 16 -27 93 -51 173
-24 80 -78 259 -120 399 -41 139 -77 257 -80 261 -4 6 -171 -35 -183 -45 -1
-1 10 -42 24 -91 85 -285 101 -344 96 -349 -3 -3 -311 -5 -685 -5 -540 0 -678
3 -673 13 124 271 184 539 173 767 -12 253 -92 507 -223 711 l-44 70 -70 -58
c-39 -31 -70 -61 -70 -66 0 -4 14 -29 31 -53 50 -74 118 -226 147 -331 25 -92
26 -111 26 -308 0 -181 -3 -222 -22 -300 -35 -146 -138 -403 -173 -432 -8 -7
-42 -13 -74 -15 l-60 -3 0 -90 0 -90 310 -5 c328 -5 343 -7 386 -56 24 -28 49
-80 49 -104 0 -20 -1 -20 -668 -20 l-667 0 -173 433 c-119 299 -176 454 -184
502 -19 116 -16 540 5 675 63 406 212 827 409 1153 203 335 594 605 1033 713
383 94 884 79 1323 -42 53 -14 107 -29 119 -31 19 -5 22 -13 25 -67 l3 -61 93
-3 92 -3 0 250 0 250 66 21 c36 11 72 20 78 20 7 0 18 -17 24 -37 22 -70 21
-70 111 -33 45 18 81 36 81 41 0 4 -13 48 -30 96 -55 164 -72 331 -50 471 12
74 65 223 89 253 17 21 18 21 63 -52 90 -145 161 -305 198 -444 12 -44 23 -85
25 -91 2 -8 28 -7 90 6 47 10 88 20 91 23 3 2 -5 42 -16 88 -104 408 -387 818
-803 1163 -59 49 -107 93 -107 98 0 9 93 151 117 180 13 15 19 14 69 -15 29
-17 79 -50 111 -74z m-404 -273 c109 -84 360 -318 418 -392 l30 -38 -30 -44
c-41 -59 -97 -188 -118 -272 -14 -54 -18 -112 -18 -267 l0 -198 -70 -20 c-47
-15 -74 -18 -85 -12 -23 15 -125 168 -176 266 -69 132 -121 285 -156 452 -28
134 -31 168 -31 325 0 96 5 193 11 215 5 22 13 61 17 87 l6 48 45 -33 c25 -17
95 -70 157 -117z m-2890 -1866 c64 -22 129 -82 158 -146 20 -47 24 -73 29
-228 l5 -175 -47 -93 c-114 -224 -237 -544 -273 -710 -4 -19 -11 -30 -15 -25
-4 4 -58 95 -119 202 l-111 194 0 387 c0 430 2 443 66 518 71 84 195 114 307
76z m2447 -3190 c32 -28 62 -79 74 -126 l6 -28 -324 0 -325 0 -11 58 c-7 31
-19 69 -26 84 -8 15 -14 29 -14 33 0 3 132 5 294 5 l294 0 32 -26z"/>
<path d="M6902 6238 l3 -93 48 -3 47 -3 0 -90 0 -89 90 0 90 0 0 89 0 90 48 3
47 3 3 93 3 92 -191 0 -191 0 3 -92z"/>
<path d="M5714 7799 c-3 -6 -9 -69 -12 -140 -13 -329 87 -682 266 -944 38 -54
54 -70 73 -70 l24 0 -3 120 c-6 195 27 351 110 521 l40 83 -48 55 c-62 73
-194 193 -328 300 -59 47 -109 86 -111 86 -2 0 -7 -5 -11 -11z m185 -234 c80
-41 37 -185 -55 -185 -47 0 -88 51 -80 98 13 82 72 120 135 87z"/>
</g>
</svg>
